<svg width="16" height="16" fill="currentColor" class="bi bi-clock-fill" viewBox="0 0 16 16" xmlns="http://www.w3.org/2000/svg">
  <path d="m 7.4104803,0.13635315 a 7.8846722,7.8846722 0 0 0 -7.29478929,7.86163505 7.8846722,7.8846722 0 1 0 15.76861799,0 7.8846722,7.8846722 0 0 0 -8.4738287,-7.86163505 z m 0.5895196,0.649296 A 7.2148491,7.2148491 0 0 1 15.214401,8.0000494 7.2148491,7.2148491 0 0 1 7.9999999,15.21445 7.2148491,7.2148491 0 0 1 0.78559961,8.0000494 7.2148491,7.2148491 0 0 1 7.9999999,0.78564915 Z m 0,0.89046315 A 6.3233595,6.3233595 0 0 0 1.6760627,8.0000494 6.3233595,6.3233595 0 0 0 7.9999999,14.323987 6.3233595,6.3233595 0 0 0 14.323938,8.0000494 6.3233595,6.3233595 0 0 0 7.9999999,1.6761123 Z M 7.5073594,3.0695222 A 0.49279205,0.49279205 0 0 1 7.9999999,3.5621627 V 8.6967544 L 11.201132,10.52715 a 0.49279201,0.49279201 0 0 1 -0.488518,0.855422 L 7.2620698,9.4120107 A 0.49279201,0.49279201 0 0 1 7.0147189,8.9832692 V 3.5621627 A 0.49279205,0.49279205 0 0 1 7.5073594,3.0695222 Z"/>
</svg>
